<svg width="113" height="170" viewBox="0 0 113 170" fill="none" xmlns="http://www.w3.org/2000/svg">
<path d="M110.467 22.7734C87.6669 -17.6266 57.3002 7.44004 45.4669 24.2734C50.4669 25.1067 60.4669 29.7734 62.4669 39.7734C63.9669 39.1067 67.4669 38.3734 69.4669 42.7734C71.1335 39.6067 80.7669 33.2734 99.9669 39.2734C97.8002 41.4401 93.4669 47.0734 93.4669 52.2734V58.7734L87.4669 61.7734C85.8002 62.9401 82.2669 65.9734 81.4669 68.7734C79.9669 69.44 76.3669 70.3734 73.9669 68.7734L66.4669 63.7734L63.9669 68.7734C91.5669 79.5734 95.1335 107.273 93.4669 119.773C109.467 110.173 106.467 87.2734 102.467 65.2734C112.467 45.2734 111.967 28.6067 110.467 22.7734Z" fill="#AB0A65"/>
<path d="M66.4669 63.7734C66.2274 61.8576 64.8352 58.5655 65.7017 56.1218V53.7734L58.4669 69.7734L61.9669 71.7734L63.9669 68.7734L66.4669 63.7734Z" fill="#AB0A65"/>
<path d="M65.7017 56.1218C66.0413 55.164 66.7279 54.3365 67.9669 53.7734C72.3669 51.7734 71.3002 45.94 69.4669 42.7734C67.4669 38.3734 63.9669 39.1067 62.4669 39.7734C60.4669 29.7734 50.4669 25.1067 45.4669 24.2734C57.3002 7.44004 87.6669 -17.6266 110.467 22.7734C111.967 28.6067 112.467 45.2734 102.467 65.2734C106.467 87.2734 109.467 110.173 93.4669 119.773C95.1335 107.273 91.5669 79.5734 63.9669 68.7734M63.9669 68.7734L66.4669 63.7734M63.9669 68.7734L61.9669 71.7734L58.4669 69.7734L65.7017 53.7734V56.1218M69.4669 42.7734C71.1335 39.6067 80.7669 33.2734 99.9669 39.2734C97.8002 41.4401 93.4669 47.0734 93.4669 52.2734V58.7734L87.4669 61.7734C85.8002 62.9401 82.2669 65.9734 81.4669 68.7734C79.9669 69.44 76.3669 70.3734 73.9669 68.7734L66.4669 63.7734M66.4669 63.7734C66.2274 61.8576 64.8352 58.5655 65.7017 56.1218M66.4669 63.7734L65.7017 56.1218" stroke="#AB0A65" stroke-width="2"/>
<path d="M78.8105 57.2365C78.514 56.7706 77.8959 56.6332 77.43 56.9297C76.964 57.2262 76.8267 57.8443 77.1232 58.3103L77.9669 57.7734L78.8105 57.2365ZM86.4669 43.2734C86.4669 42.7211 86.0191 42.2734 85.4669 42.2734C84.9146 42.2734 84.4669 42.7211 84.4669 43.2734H85.4669H86.4669ZM89.4669 49.7734C90.0191 49.7734 90.4669 49.3257 90.4669 48.7734C90.4669 48.2211 90.0191 47.7734 89.4669 47.7734V48.7734V49.7734ZM77.9669 57.7734L77.1232 58.3103C77.7121 59.2357 78.4887 60.4029 79.3209 61.4103C79.7372 61.9142 80.182 62.3962 80.6386 62.7934C81.0858 63.1826 81.5975 63.5377 82.1506 63.7221L82.4669 62.7734L82.7831 61.8247C82.5862 61.7591 82.3062 61.5934 81.9514 61.2846C81.6059 60.9839 81.2382 60.5909 80.8628 60.1365C80.1116 59.2272 79.3883 58.1444 78.8105 57.2365L77.9669 57.7734ZM85.4669 43.2734H84.4669C84.4669 44.5511 84.5868 46.1372 85.2706 47.4288C85.6231 48.0946 86.1324 48.6962 86.8545 49.1252C87.5751 49.5535 88.4463 49.7734 89.4669 49.7734V48.7734V47.7734C88.7374 47.7734 88.2336 47.6183 87.8761 47.4059C87.52 47.1943 87.2481 46.8896 87.0381 46.493C86.5969 45.6595 86.4669 44.4956 86.4669 43.2734H85.4669Z" fill="#AB0A65"/>
<path fill-rule="evenodd" clip-rule="evenodd" d="M87.9669 121.273C89.5669 92.8734 71.3002 76.7734 61.9669 72.2734L57.3373 69.7734C51.7554 76.2461 44.0688 77.6917 39.4669 77.2734C36.4496 77.2734 30.5741 72.5317 25.4669 67.3951C15.9669 77.5212 -2.13314 110.673 1.46686 162.273C1.63353 163.273 2.96686 165.673 6.96686 167.273C10.9669 168.873 59.6335 167.94 83.4669 167.273C84.6708 166.822 87.2066 165.229 88.5708 162.273C88.6521 162.097 88.7293 161.916 88.8017 161.73C89.6978 158.669 88.6523 147.721 87.9669 142.892C86.9375 142.502 85.9266 141.913 84.9669 141.273C81.3669 134.873 70.1335 131.273 64.9669 130.273C48.5669 128.673 36.1335 109.94 31.9669 100.773H53.9669C58.7669 117.973 78.9669 121.607 87.9669 121.273ZM66.4669 89.7734C70.0669 79.7734 62.6335 79.6067 58.4669 80.7734C52.3002 84.6067 37.5669 90.2734 27.9669 82.2734C20.3669 82.2734 21.4669 87.2734 22.9669 89.7734C31.3669 95.3734 42.1335 97.44 46.4669 97.7734C58.4669 97.7734 64.8002 92.44 66.4669 89.7734ZM58.4669 133.273C49.6669 130.073 42.1335 122.94 39.4669 119.773C34.6335 125.44 23.5669 137.673 17.9669 141.273C16.4669 143.94 15.8669 148.873 25.4669 147.273C35.3002 144.44 55.6669 137.673 58.4669 133.273Z" fill="#AB0A65"/>
<path d="M61.9669 72.2734L61.4917 73.1533L61.5119 73.1642L61.5326 73.1741L61.9669 72.2734ZM87.9669 121.273L88.0039 122.273L88.0116 122.272L88.0194 122.272L87.9669 121.273ZM53.9669 100.773L54.9301 100.505L54.726 99.7734H53.9669V100.773ZM58.4669 80.7734L58.1972 79.8104L58.06 79.8488L57.9389 79.9241L58.4669 80.7734ZM66.4669 89.7734L67.3149 90.3034L67.3715 90.2127L67.4078 90.1121L66.4669 89.7734ZM46.4669 97.7734L46.3902 98.7704L46.4285 98.7734H46.4669V97.7734ZM22.9669 89.7734L22.1094 90.2879L22.2251 90.4807L22.4122 90.6054L22.9669 89.7734ZM27.9669 82.2734L28.607 81.5051L28.3289 81.2734H27.9669V82.2734ZM31.9669 100.773V99.7734H30.4139L31.0565 101.187L31.9669 100.773ZM64.9669 130.273L65.1569 129.292L65.1107 129.283L65.064 129.278L64.9669 130.273ZM84.9669 141.273L84.0953 141.764L84.2128 141.972L84.4122 142.105L84.9669 141.273ZM100.467 130.273L101.338 130.764L101.551 130.386L101.42 129.972L100.467 130.273ZM94.4669 141.273L95.2261 141.924L95.3062 141.831L95.3613 141.721L94.4669 141.273ZM39.4669 119.773L40.2318 119.129L39.4717 118.227L38.706 119.124L39.4669 119.773ZM58.4669 133.273L59.3105 133.81L59.9793 132.759L58.8086 132.334L58.4669 133.273ZM25.4669 147.273L25.6313 148.26L25.6882 148.25L25.7437 148.234L25.4669 147.273ZM17.9669 141.273L17.4261 140.432L17.2171 140.567L17.0953 140.783L17.9669 141.273ZM63.9669 40.7734L63.8763 41.7693L63.9631 41.7772L64.0499 41.7699L63.9669 40.7734ZM69.4669 49.7734L70.3613 50.2206L70.4669 50.0094V49.7734H69.4669ZM63.9669 52.2734L64.5481 51.4597L63.1316 50.4479L62.9711 52.1812L63.9669 52.2734ZM61.9669 40.9817L62.2486 41.9412L61.9669 40.9817ZM36.4669 25.2734L36.5705 26.268L36.4669 25.2734ZM18.4669 58.7734L17.4759 58.9077L17.5094 59.1544L17.6545 59.3566L18.4669 58.7734ZM39.4669 77.2734L39.5574 76.2775L39.5122 76.2734H39.4669V77.2734ZM1.46686 162.273L0.469287 162.343L0.472613 162.391L0.480468 162.438L1.46686 162.273ZM83.4669 167.273L83.4948 168.273L83.6617 168.268L83.818 168.21L83.4669 167.273ZM87.9669 142.892L88.9569 142.751L88.8739 142.166L88.3213 141.957L87.9669 142.892ZM43.5196 54.8789C43.0257 55.1259 42.8254 55.7266 43.0724 56.2206C43.3194 56.7146 43.9201 56.9148 44.4141 56.6678L43.9669 55.7734L43.5196 54.8789ZM49.386 51.1673C49.6036 50.6597 49.3684 50.0718 48.8608 49.8542C48.3531 49.6367 47.7653 49.8718 47.5477 50.3795L48.4669 50.7734L49.386 51.1673ZM35.3887 62.161C35.6027 61.6519 35.3636 61.0656 34.8545 60.8515C34.3453 60.6375 33.7591 60.8767 33.545 61.3858L34.4669 61.7734L35.3887 62.161ZM29.5465 64.866C29.0453 65.0982 28.8273 65.6927 29.0595 66.1938C29.2917 66.6949 29.8862 66.9129 30.3873 66.6807L29.9669 65.7734L29.5465 64.866ZM41.7499 68.7972C41.2108 68.917 40.8709 69.4512 40.9907 69.9903C41.1105 70.5294 41.6447 70.8694 42.1838 70.7496L41.9669 69.7734L41.7499 68.7972ZM48.437 65.0159C48.5709 64.4801 48.2452 63.9372 47.7094 63.8032C47.1736 63.6693 46.6307 63.995 46.4967 64.5308L47.4669 64.7734L48.437 65.0159ZM39.4669 47.7734C38.9146 47.7734 38.4669 48.2211 38.4669 48.7733C38.4668 49.3256 38.9145 49.7734 39.4668 49.7734L39.4669 48.7734L39.4669 47.7734ZM42.7477 46.8981C43.0927 46.4668 43.0228 45.8375 42.5916 45.4925C42.1603 45.1475 41.531 45.2174 41.186 45.6487L41.9669 46.2734L42.7477 46.8981ZM28.8149 56.3034C29.1076 55.835 28.9652 55.2181 28.4969 54.9254C28.0285 54.6327 27.4116 54.775 27.1189 55.2434L27.9669 55.7734L28.8149 56.3034ZM25.0196 57.8789C24.5257 58.1259 24.3254 58.7266 24.5724 59.2206C24.8194 59.7146 25.4201 59.9148 25.9141 59.6678L25.4669 58.7734L25.0196 57.8789ZM23.9821 44.7734L24.8418 44.2627L23.9821 44.7734ZM30.8953 44.1448C31.1004 43.632 30.851 43.05 30.3382 42.8449C29.8255 42.6398 29.2435 42.8892 29.0384 43.402L29.9669 43.7734L30.8953 44.1448ZM61.9669 72.2734L61.5326 73.1741C70.5993 77.5456 88.5402 93.3191 86.9684 121.217L87.9669 121.273L88.9653 121.33C90.5936 92.4277 72.0011 76.0011 62.4012 71.3726L61.9669 72.2734ZM87.9669 121.273L87.9298 120.274C83.5557 120.436 76.4117 119.629 69.7986 116.685C63.2022 113.748 57.2259 108.731 54.9301 100.505L53.9669 100.773L53.0037 101.042C55.5078 110.015 62.0316 115.416 68.9851 118.512C75.922 121.601 83.378 122.444 88.0039 122.273L87.9669 121.273ZM58.4669 80.7734L58.7365 81.7363C59.7057 81.465 60.8577 81.2741 61.9746 81.2812C63.1013 81.2883 64.1121 81.4962 64.8687 81.9456C65.5863 82.3719 66.1342 83.0465 66.3377 84.1635C66.5496 85.3265 66.3947 87.0214 65.526 89.4346L66.4669 89.7734L67.4078 90.1121C68.339 87.5253 68.6049 85.4494 68.3054 83.8051C67.9974 82.1148 67.1016 80.9457 65.89 80.2261C64.7175 79.5297 63.3137 79.2897 61.9873 79.2812C60.651 79.2727 59.3114 79.4985 58.1972 79.8104L58.4669 80.7734ZM66.4669 89.7734L65.6189 89.2434C64.1641 91.5709 58.181 96.7734 46.4669 96.7734V97.7734V98.7734C58.7527 98.7734 65.4363 93.3091 67.3149 90.3034L66.4669 89.7734ZM46.4669 97.7734L46.5436 96.7763C42.3113 96.4508 31.7303 94.4138 23.5216 88.9413L22.9669 89.7734L22.4122 90.6054C31.0034 96.3329 41.9558 98.4293 46.3902 98.7704L46.4669 97.7734ZM58.4669 80.7734L57.9389 79.9241C54.9462 81.7844 49.8462 84.1021 44.3479 84.9732C38.849 85.8444 33.1016 85.2506 28.607 81.5051L27.9669 82.2734L27.3267 83.0416C32.4322 87.2962 38.8514 87.869 44.6609 86.9486C50.4709 86.028 55.8208 83.5957 58.9948 81.6227L58.4669 80.7734ZM22.9669 89.7734L23.8244 89.2589C23.124 88.0916 22.6499 86.5347 23.009 85.3837C23.173 84.8579 23.525 84.3609 24.2429 83.974C24.9887 83.572 26.1635 83.2734 27.9669 83.2734V82.2734V81.2734C25.9702 81.2734 24.4325 81.5998 23.294 82.2134C22.1274 82.8421 21.4232 83.7513 21.0997 84.788C20.4839 86.762 21.3097 88.9552 22.1094 90.2879L22.9669 89.7734ZM53.9669 100.773V99.7734H31.9669V100.773V101.773H53.9669V100.773ZM31.9669 100.773L31.0565 101.187C33.1784 105.855 37.3863 112.926 43.1514 119.047C48.9047 125.154 56.3227 130.435 64.8698 131.269L64.9669 130.273L65.064 129.278C57.2111 128.512 50.2124 123.626 44.6073 117.675C39.0141 111.737 34.922 104.858 32.8772 100.36L31.9669 100.773ZM64.9669 130.273L64.7768 131.255C67.2921 131.742 71.3119 132.869 75.1309 134.654C78.9848 136.456 82.4533 138.845 84.0953 141.764L84.9669 141.273L85.8384 140.783C83.8804 137.302 79.9323 134.691 75.9778 132.842C71.9885 130.978 67.8083 129.805 65.1569 129.292L64.9669 130.273ZM87.9669 121.273L88.0194 122.272C90.9254 122.119 97.3015 123.571 99.5133 130.575L100.467 130.273L101.42 129.972C98.8322 121.776 91.3417 120.094 87.9143 120.275L87.9669 121.273ZM84.9669 141.273L84.4122 142.105C85.9371 143.122 87.7287 144.113 89.6022 144.329C91.5701 144.556 93.5183 143.917 95.2261 141.924L94.4669 141.273L93.7076 140.623C92.4154 142.13 91.1136 142.49 89.8315 142.342C88.455 142.184 86.9966 141.425 85.5216 140.441L84.9669 141.273ZM100.467 130.273L99.5953 129.783C98.0993 132.443 94.7857 138.4 93.5724 140.826L94.4669 141.273L95.3613 141.721C96.548 139.347 99.8344 133.437 101.338 130.764L100.467 130.273ZM39.4669 119.773L38.702 120.418C41.4316 123.659 49.1007 130.932 58.1251 134.213L58.4669 133.273L58.8086 132.334C50.233 129.215 42.8355 122.221 40.2318 119.129L39.4669 119.773ZM25.4669 147.273L25.7437 148.234C30.6799 146.812 38.2601 144.403 44.967 141.793C48.3184 140.489 51.474 139.126 53.9791 137.803C55.2313 137.142 56.3394 136.481 57.2351 135.832C58.1154 135.194 58.8598 134.519 59.3105 133.81L58.4669 133.273L57.6232 132.736C57.3739 133.128 56.8694 133.627 56.0615 134.212C55.269 134.787 54.2498 135.398 53.0452 136.034C50.6368 137.306 47.5611 138.637 44.2417 139.929C37.6069 142.511 30.0871 144.901 25.19 146.312L25.4669 147.273ZM39.4669 119.773L38.706 119.124C36.3001 121.945 32.3389 126.405 28.2849 130.604C24.2049 134.83 20.1139 138.704 17.4261 140.432L17.9669 141.273L18.5076 142.115C21.4198 140.242 25.6622 136.2 29.7238 131.993C33.8115 127.759 37.8003 123.268 40.2277 120.422L39.4669 119.773ZM17.9669 141.273L17.0953 140.783C16.6753 141.53 16.305 142.456 16.1662 143.418C16.0274 144.38 16.1108 145.46 16.7087 146.407C17.3173 147.371 18.3591 148.042 19.8194 148.363C21.2619 148.68 23.1647 148.671 25.6313 148.26L25.4669 147.273L25.3025 146.287C22.9691 146.676 21.3468 146.651 20.2487 146.409C19.1684 146.172 18.654 145.742 18.4 145.34C18.1355 144.92 18.0501 144.367 18.1457 143.704C18.2412 143.041 18.5084 142.35 18.8384 141.764L17.9669 141.273ZM63.9669 40.7734L64.0499 41.7699C64.8787 41.7009 65.8933 41.8289 66.7315 42.7385C67.6074 43.6891 68.4669 45.6767 68.4669 49.7734H69.4669H70.4669C70.4669 45.4701 69.5763 42.8744 68.2022 41.3832C66.7904 39.8511 65.0551 39.6792 63.8838 39.7768L63.9669 40.7734ZM69.4669 49.7734L68.5724 49.3262C68.169 50.1331 67.5825 51.071 66.8679 51.5884C66.53 51.8331 66.2022 51.9551 65.8724 51.961C65.5469 51.9669 65.1108 51.8616 64.5481 51.4597L63.9669 52.2734L63.3856 53.0871C64.2229 53.6852 65.0702 53.9757 65.9082 53.9607C66.742 53.9458 67.4579 53.6304 68.0408 53.2084C69.1679 52.3924 69.9314 51.0803 70.3613 50.2206L69.4669 49.7734ZM63.9669 40.7734L64.0574 39.7775C63.3883 39.7167 62.5451 39.7696 61.6851 40.0222L61.9669 40.9817L62.2486 41.9412C62.854 41.7634 63.4437 41.7299 63.8763 41.7693L63.9669 40.7734ZM61.9669 40.9817L61.6851 40.0222C60.6784 40.3179 59.6083 40.9002 58.7915 41.9377C57.9688 42.9827 57.4669 44.4087 57.4669 46.2734H58.4669H59.4669C59.4669 44.7804 59.862 43.8111 60.3629 43.1749C60.8697 42.5312 61.5495 42.1465 62.2486 41.9412L61.9669 40.9817ZM61.9669 40.9817L62.9635 40.8996C62.6948 37.6378 61.0186 32.958 56.8873 29.3484C52.728 25.7144 46.1858 23.2556 36.3633 24.2788L36.4669 25.2734L36.5705 26.268C45.9479 25.2912 51.9057 27.6518 55.5714 30.8546C59.2651 34.0818 60.7389 38.2562 60.9702 41.0638L61.9669 40.9817ZM18.4669 58.7734L17.6545 59.3566C19.3827 61.7636 21.6755 65.0002 24.7577 68.1001L25.4669 67.3951L26.176 66.69C23.2232 63.7202 21.0174 60.6113 19.2792 58.1902L18.4669 58.7734ZM25.4669 67.3951L24.7577 68.1001C27.3331 70.6903 30.1184 73.1979 32.658 75.066C33.9271 75.9995 35.1548 76.7882 36.2792 77.3476C37.3829 77.8966 38.4819 78.2734 39.4669 78.2734V77.2734V76.2734C38.9431 76.2734 38.1763 76.0575 37.17 75.5569C36.1846 75.0667 35.0585 74.3489 33.8431 73.4549C31.4139 71.668 28.7079 69.2365 26.176 66.69L25.4669 67.3951ZM25.4669 67.3951L24.7376 66.7109C15.0237 77.0649 -3.14756 110.501 0.469287 162.343L1.46686 162.273L2.46444 162.204C-1.11871 110.845 16.91 77.9774 26.1962 68.0793L25.4669 67.3951ZM1.46686 162.273L0.480468 162.438C0.720606 163.879 2.37324 166.513 6.59547 168.202L6.96686 167.273L7.33825 166.345C3.56048 164.834 2.54645 162.668 2.45326 162.109L1.46686 162.273ZM6.96686 167.273L6.59547 168.202C6.9684 168.351 7.49941 168.453 8.08566 168.535C8.69835 168.62 9.46218 168.694 10.3533 168.758C12.137 168.886 14.4778 168.978 17.2328 169.042C22.7455 169.169 29.9605 169.182 37.7868 169.123C53.4418 169.007 71.574 168.606 83.4948 168.273L83.4669 167.273L83.4389 166.274C71.5263 166.607 53.4086 167.007 37.7719 167.123C29.9524 167.182 22.7612 167.169 17.279 167.042C14.5367 166.979 12.2329 166.887 10.4964 166.763C9.62746 166.7 8.91229 166.631 8.361 166.554C7.78327 166.474 7.46531 166.396 7.33825 166.345L6.96686 167.273ZM83.4669 167.273L83.818 168.21C85.2169 167.685 87.9832 165.933 89.4788 162.692L88.5708 162.273L87.6629 161.854C86.4301 164.525 84.1248 165.959 83.1157 166.337L83.4669 167.273ZM39.4669 77.2734L39.3763 78.2693C44.2253 78.7101 52.2576 77.195 58.0946 70.4264L57.3373 69.7734L56.58 69.1203C51.2533 75.2972 43.9122 76.6734 39.5574 76.2775L39.4669 77.2734ZM57.3373 69.7734L58.0946 70.4264C61.5639 66.4034 64.2016 60.5847 64.9626 52.3656L63.9669 52.2734L62.9711 52.1812C62.2423 60.0526 59.7368 65.4597 56.58 69.1203L57.3373 69.7734ZM61.9669 72.2734L62.442 71.3935C61.6704 70.9768 60.513 70.3518 59.5485 69.831C59.0663 69.5706 58.6323 69.3362 58.3188 69.1669C58.1621 69.0823 58.0355 69.0139 57.9481 68.9667C57.9044 68.9431 57.8705 68.9248 57.8475 68.9124C57.836 68.9062 57.8272 68.9015 57.8213 68.8983C57.8184 68.8967 57.8162 68.8955 57.8147 68.8947C57.8139 68.8943 57.8134 68.894 57.813 68.8938C57.8129 68.8937 57.8126 68.8936 57.8126 68.8935C57.8125 68.8935 57.8125 68.8935 57.8125 68.8935C57.8125 68.8935 57.8124 68.8935 57.3373 69.7734C56.8621 70.6533 56.8621 70.6533 56.8622 70.6533C56.8622 70.6533 56.8622 70.6533 56.8623 70.6534C56.8625 70.6535 56.8624 70.6534 56.8627 70.6536C56.8631 70.6538 56.8636 70.6541 56.8644 70.6545C56.8659 70.6553 56.8681 70.6565 56.871 70.6581C56.8769 70.6613 56.8857 70.666 56.8972 70.6722C56.9202 70.6846 56.9541 70.7029 56.9978 70.7265C57.0852 70.7737 57.2118 70.8421 57.3685 70.9267C57.682 71.096 58.116 71.3304 58.5982 71.5908C59.5627 72.1116 60.7201 72.7366 61.4917 73.1533L61.9669 72.2734ZM43.9669 55.7734L44.4141 56.6678C45.5766 56.0866 48.0733 54.2303 49.386 51.1673L48.4669 50.7734L47.5477 50.3795C46.4604 52.9165 44.3571 54.4602 43.5196 54.8789L43.9669 55.7734ZM34.4669 61.7734L33.545 61.3858C33.316 61.9304 32.1392 63.6647 29.5465 64.866L29.9669 65.7734L30.3873 66.6807C33.3945 65.2874 34.951 63.2019 35.3887 62.161L34.4669 61.7734ZM41.9669 69.7734L42.1838 70.7496C43.0604 70.5548 44.367 70.0496 45.5759 69.1509C46.7935 68.2459 47.9662 66.8991 48.437 65.0159L47.4669 64.7734L46.4967 64.5308C46.1675 65.8476 45.3402 66.8341 44.3828 67.5458C43.4168 68.2639 42.3733 68.6586 41.7499 68.7972L41.9669 69.7734ZM39.4669 48.7734L39.4668 49.7734C39.6995 49.7734 39.8837 49.6973 39.9663 49.6602C40.0715 49.6129 40.1697 49.5546 40.2575 49.4961C40.4341 49.3783 40.6343 49.2154 40.8595 49.0064C41.3125 48.5862 41.9299 47.9204 42.7477 46.8981L41.9669 46.2734L41.186 45.6487C40.4038 46.6264 39.8546 47.2106 39.4992 47.5403C39.3202 47.7064 39.2058 47.7935 39.1481 47.832C39.1187 47.8516 39.1198 47.8479 39.1467 47.8358C39.151 47.8339 39.2759 47.7734 39.4669 47.7734L39.4669 48.7734ZM27.9669 55.7734L27.1189 55.2434C26.6851 55.9374 26.3433 56.5069 25.9832 56.9808C25.6284 57.4476 25.3228 57.7274 25.0196 57.8789L25.4669 58.7734L25.9141 59.6678C26.6109 59.3194 27.1386 58.7658 27.5755 58.191C28.007 57.6232 28.4153 56.9427 28.8149 56.3034L27.9669 55.7734ZM36.4669 25.2734L36.3633 24.2788C33.3371 24.594 30.2959 26.0217 27.6887 27.7219C25.0707 29.4292 22.8079 31.4652 21.3267 33.1025L22.0683 33.7734L22.8098 34.4443C24.1823 32.9272 26.3151 31.0053 28.7811 29.3972C31.258 27.782 33.9892 26.5369 36.5705 26.268L36.4669 25.2734ZM22.0683 33.7734L21.0782 33.633C20.7255 36.1208 20.9956 38.6159 21.4613 40.6711C21.9242 42.714 22.5994 44.4036 23.1223 45.284L23.9821 44.7734L24.8418 44.2627C24.4568 43.6145 23.8443 42.1374 23.4119 40.2291C22.9822 38.3332 22.7495 36.0927 23.0584 33.9138L22.0683 33.7734ZM23.9821 44.7734L23.1223 45.284C23.5294 45.9696 24.0275 46.6245 24.6048 47.1283C25.1774 47.6281 25.8945 48.0354 26.7224 48.0841C28.4993 48.1889 29.8776 46.6891 30.8953 44.1448L29.9669 43.7734L29.0384 43.402C28.0561 45.8577 27.1844 46.1079 26.8401 46.0876C26.6074 46.0739 26.2961 45.9499 25.9199 45.6215C25.5483 45.2972 25.1771 44.8272 24.8418 44.2627L23.9821 44.7734ZM22.0683 33.7734L21.3267 33.1025C21.2864 33.147 21.2565 33.1792 21.2352 33.2015C21.2119 33.2259 21.206 33.2309 21.2121 33.2253C21.2147 33.2229 21.2303 33.2086 21.2549 33.1895C21.2676 33.1797 21.2892 33.1635 21.318 33.1449C21.3328 33.1354 21.3522 33.1235 21.3756 33.1106C21.3986 33.098 21.4302 33.0819 21.4693 33.0656C21.5071 33.0498 21.5632 33.0292 21.6335 33.0134C21.7018 32.9981 21.8075 32.9819 21.9365 32.993C22.0705 33.0046 22.2397 33.047 22.4052 33.1576C22.4865 33.212 22.5581 33.2771 22.6186 33.35C22.6786 33.4224 22.7234 33.4971 22.7563 33.5683C22.8206 33.7073 22.8402 33.8332 22.846 33.9177C22.8519 34.0036 22.8456 34.0745 22.839 34.1219C22.8323 34.1709 22.8229 34.2113 22.8152 34.2402C22.8073 34.2698 22.7992 34.2946 22.7925 34.3134C22.7795 34.35 22.767 34.3782 22.7593 34.3948C22.7511 34.4125 22.7439 34.4263 22.7391 34.4352C22.7299 34.4525 22.7231 34.4636 22.7215 34.4662C22.7183 34.4715 22.72 34.4683 22.7296 34.4545C22.7479 34.428 22.7764 34.3891 22.8095 34.3461C22.8426 34.3031 22.8729 34.2654 22.894 34.2407C22.905 34.2277 22.9079 34.2249 22.9039 34.2291C22.9019 34.2311 22.8933 34.2402 22.8796 34.2531C22.8724 34.2598 22.8613 34.2699 22.847 34.282C22.8335 34.2933 22.8105 34.312 22.78 34.3331C22.7644 34.344 22.7437 34.3577 22.7187 34.3724C22.6942 34.3868 22.66 34.4055 22.6175 34.4243C22.5764 34.4424 22.5146 34.4663 22.4366 34.484C22.3604 34.5012 22.2431 34.5184 22.1012 34.5018C22.0284 34.4933 21.9475 34.4757 21.863 34.4436C21.7778 34.4113 21.694 34.3661 21.6156 34.3069C21.4545 34.1852 21.3552 34.0344 21.2983 33.9001C21.2441 33.7722 21.2274 33.6583 21.222 33.5828C21.2164 33.5053 21.221 33.4412 21.2261 33.3978C21.2313 33.3529 21.2388 33.3157 21.2451 33.2888C21.2515 33.2612 21.2582 33.2381 21.2637 33.2204C21.2745 33.186 21.285 33.1595 21.2914 33.1441C21.3039 33.1139 21.3143 33.0942 21.3161 33.0907C21.3204 33.0824 21.3175 33.0886 21.3002 33.1171C21.2844 33.143 21.2613 33.1798 21.2289 33.2298L22.0683 33.7734L22.9076 34.317C22.9465 34.257 22.9802 34.2036 23.0087 34.1568C23.0357 34.1125 23.0645 34.0634 23.0898 34.0148C23.1021 33.9912 23.1203 33.955 23.1382 33.9118C23.1473 33.89 23.1599 33.8578 23.1721 33.8187C23.1784 33.7986 23.1857 33.7732 23.1926 33.7437C23.1994 33.7148 23.2072 33.6758 23.2126 33.6293C23.2179 33.5843 23.2225 33.5188 23.2169 33.4401C23.2114 33.3634 23.1944 33.2485 23.1398 33.1198C23.0826 32.9846 22.9828 32.8332 22.8211 32.711C22.7424 32.6516 22.6583 32.6062 22.5727 32.5738C22.4879 32.5416 22.4066 32.5239 22.3333 32.5153C22.1906 32.4986 22.0723 32.5158 21.9949 32.5333C21.9158 32.5513 21.8529 32.5756 21.8104 32.5943C21.7666 32.6136 21.7309 32.6331 21.7049 32.6484C21.6783 32.6641 21.6559 32.6788 21.6385 32.6909C21.6044 32.7146 21.5775 32.7363 21.5596 32.7514C21.5408 32.7672 21.5249 32.7816 21.5126 32.7932C21.4884 32.8158 21.4679 32.8368 21.4528 32.8527C21.4225 32.8847 21.394 32.9173 21.3704 32.945C21.3222 33.0017 21.2706 33.0664 21.2238 33.1273C21.177 33.1882 21.1277 33.2547 21.0855 33.3157C21.0648 33.3456 21.0405 33.3817 21.0174 33.4194C21.0059 33.4381 20.9907 33.4637 20.9748 33.4933C20.9668 33.5084 20.9567 33.528 20.9461 33.5508C20.936 33.5725 20.9216 33.6053 20.9072 33.6459C20.8998 33.6667 20.8911 33.6934 20.8827 33.7247C20.8746 33.7554 20.8649 33.7973 20.8579 33.8477C20.8512 33.8965 20.8447 33.9686 20.8508 34.0557C20.8567 34.1412 20.8764 34.2681 20.9411 34.4078C20.9742 34.4794 21.0192 34.5544 21.0794 34.6271C21.1402 34.7003 21.212 34.7657 21.2937 34.8203C21.4598 34.9313 21.6298 34.974 21.7648 34.9856C21.8946 34.9968 22.0015 34.9805 22.071 34.9649C22.1425 34.9489 22.2 34.9278 22.2393 34.9114C22.2799 34.8945 22.3132 34.8775 22.338 34.8639C22.3633 34.85 22.3847 34.8369 22.4016 34.8259C22.4347 34.8046 22.4614 34.7848 22.4797 34.7707C22.5156 34.7428 22.5452 34.7165 22.5647 34.6985C22.6048 34.6618 22.6446 34.6215 22.6806 34.5838C22.7186 34.5441 22.7616 34.4976 22.8098 34.4443L22.0683 33.7734ZM22.0683 33.7734L21.2289 33.2298C18.6055 37.2802 17.4663 42.1485 17.0777 46.7416C16.6884 51.3428 17.0465 55.7404 17.4759 58.9077L18.4669 58.7734L19.4578 58.639C19.0399 55.5572 18.6978 51.3161 19.0706 46.9102C19.444 42.4962 20.5292 37.9891 22.9076 34.317L22.0683 33.7734ZM22.0683 33.7734L22.9782 33.3587C22.3305 31.9373 21.601 29.6648 21.5039 27.5035C21.4057 25.3189 21.952 23.5485 23.4814 22.6309L22.9669 21.7734L22.4524 20.9159C19.9817 22.3983 19.3951 25.1278 19.5059 27.5933C19.6177 30.082 20.4389 32.6095 21.1583 34.1881L22.0683 33.7734ZM22.9669 21.7734L23.4814 22.6309C23.9245 22.365 24.0273 22.4287 23.9292 22.4084C23.7142 22.3641 23.6976 22.187 23.7433 22.3385C23.7949 22.5099 23.8273 22.8354 23.7928 23.3501C23.7596 23.8461 23.6701 24.4428 23.5353 25.1138C22.9907 27.8229 21.792 31.3475 21.1155 33.4697L22.0683 33.7734L23.021 34.0771C23.6728 32.0326 24.9234 28.3572 25.4961 25.5079C25.6405 24.7894 25.7471 24.0991 25.7883 23.4838C25.8283 22.8871 25.8136 22.277 25.6582 21.7614C25.4968 21.2259 25.1133 20.6105 24.3331 20.4496C23.6699 20.3129 23.0092 20.5818 22.4524 20.9159L22.9669 21.7734ZM22.0683 33.7734L22.6378 32.9514C20.8927 31.7421 18.1013 30.2537 15.4174 29.8117C14.0687 29.5896 12.6566 29.6166 11.4037 30.1673C10.1144 30.7339 9.10782 31.8055 8.52512 33.437L9.46686 33.7734L10.4086 34.1097C10.8259 32.9413 11.4736 32.3212 12.2084 31.9982C12.9797 31.6593 13.9616 31.5989 15.0924 31.7851C17.3674 32.1598 19.8767 33.4713 21.4987 34.5953L22.0683 33.7734ZM9.46686 33.7734L8.52512 33.437C8.2435 34.2256 8.1206 34.9755 8.24364 35.6551C8.37438 36.3771 8.76927 36.9374 9.3448 37.3061C9.88502 37.6521 10.5339 37.7992 11.1737 37.8468C11.8228 37.8951 12.539 37.8462 13.2757 37.7377C16.1918 37.308 19.9472 35.8588 22.4888 34.6807L22.0683 33.7734L21.6477 32.8661C19.1556 34.0213 15.6102 35.3721 12.9841 35.7591C12.3352 35.8547 11.7758 35.8861 11.322 35.8523C10.8589 35.8179 10.5777 35.7207 10.4236 35.6219C10.3048 35.5458 10.241 35.4608 10.2116 35.2987C10.1746 35.0942 10.1902 34.7212 10.4086 34.1097L9.46686 33.7734ZM61.9669 72.2734L62.442 71.3935L57.8124 68.8935L57.3373 69.7734L56.8621 70.6533L61.4917 73.1533L61.9669 72.2734ZM88.5708 162.273L89.4788 162.692C89.5684 162.498 89.6535 162.299 89.7334 162.094L88.8017 161.73L87.87 161.367C87.805 161.534 87.7358 161.696 87.6629 161.854L88.5708 162.273ZM88.8017 161.73L89.7614 162.011C90.0279 161.101 90.1283 159.72 90.1456 158.186C90.1633 156.619 90.0937 154.786 89.9754 152.911C89.7386 149.161 89.3032 145.191 88.9569 142.751L87.9669 142.892L86.9768 143.033C87.3159 145.422 87.746 149.34 87.9793 153.037C88.096 154.886 88.1627 156.665 88.1458 158.163C88.1285 159.694 88.0236 160.829 87.842 161.449L88.8017 161.73ZM87.9669 142.892L88.3213 141.957C87.3931 141.605 86.4537 141.063 85.5216 140.441L84.9669 141.273L84.4122 142.105C85.3995 142.764 86.4819 143.399 87.6124 143.827L87.9669 142.892ZM88.8017 161.73L87.842 161.449C87.7903 161.626 87.7476 161.705 87.7347 161.725L88.5708 162.273L89.4069 162.822C89.5704 162.573 89.681 162.286 89.7614 162.011L88.8017 161.73ZM88.8017 161.73L89.7334 162.094C89.7976 161.929 89.8584 161.761 89.9155 161.59L88.9669 161.273L88.0182 160.957C87.9716 161.097 87.9222 161.233 87.87 161.367L88.8017 161.73Z" fill="#AB0A65"/>
</svg>
