<svg width="30" height="27" viewBox="0 0 30 27" fill="none" xmlns="http://www.w3.org/2000/svg">
<path d="M27.7857 1H2.07143C1.4797 1 1 1.4797 1 2.07143V19.2143C1 19.8059 1.4797 20.2857 2.07143 20.2857H27.7857C28.3774 20.2857 28.8571 19.8059 28.8571 19.2143V2.07143C28.8571 1.4797 28.3774 1 27.7857 1Z" stroke="#AB0A65" stroke-width="2" stroke-linecap="round" stroke-linejoin="round"/>
<path d="M12.7857 20.2857L10.6429 25.6428" stroke="#AB0A65" stroke-width="2" stroke-linecap="round" stroke-linejoin="round"/>
<path d="M17.0714 20.2857L19.2143 25.6428" stroke="#AB0A65" stroke-width="2" stroke-linecap="round" stroke-linejoin="round"/>
<path d="M8.5 25.6429H21.3571" stroke="#AB0A65" stroke-width="2" stroke-linecap="round" stroke-linejoin="round"/>
<path d="M13.4334 4.71967C12.9252 4.71967 12.5133 5.13161 12.5133 5.63977V8.22763H9.92547C9.41731 8.22763 9.00537 8.63957 9.00537 9.14773V12.1381C9.00537 12.6462 9.41731 13.0582 9.92547 13.0582H12.5133V15.646C12.5133 16.1541 12.9252 16.5661 13.4334 16.5661H16.4238C16.9319 16.5661 17.3439 16.1541 17.3439 15.646V13.0582H19.9317C20.4398 13.0582 20.8518 12.6462 20.8518 12.1381V9.14773C20.8518 8.63957 20.4398 8.22763 19.9317 8.22763H17.3439V5.63977C17.3439 5.13161 16.9319 4.71967 16.4238 4.71967H13.4334Z" stroke="#AB0A65" stroke-width="2" stroke-linecap="round" stroke-linejoin="round"/>
</svg>
