<svg width="25" height="25" viewBox="0 0 25 25" fill="none" xmlns="http://www.w3.org/2000/svg">
<path d="M12.5 0C19.4035 0 25 5.59644 25 12.5C25 19.4035 19.4035 25 12.5 25C5.59644 25 0 19.4035 0 12.5C0 5.59644 5.59644 0 12.5 0ZM12.5 2.5C6.97715 2.5 2.5 6.97715 2.5 12.5C2.5 18.0229 6.97715 22.5 12.5 22.5C18.0229 22.5 22.5 18.0229 22.5 12.5C22.5 6.97715 18.0229 2.5 12.5 2.5ZM12.5 11.25C13.1904 11.25 13.75 11.8096 13.75 12.5V16.25H14.375C15.0654 16.25 15.625 16.8096 15.625 17.5C15.625 18.1904 15.0654 18.75 14.375 18.75H10.625C9.93465 18.75 9.375 18.1904 9.375 17.5C9.375 16.8096 9.93465 16.25 10.625 16.25H11.25V13.75H10.625C9.93465 13.75 9.375 13.1904 9.375 12.5C9.375 11.8096 9.93465 11.25 10.625 11.25H12.5ZM12.1875 6.25C13.0505 6.25 13.75 6.94955 13.75 7.8125C13.75 8.67545 13.0505 9.375 12.1875 9.375C11.3245 9.375 10.625 8.67545 10.625 7.8125C10.625 6.94955 11.3245 6.25 12.1875 6.25Z" fill="#AB0A65"/>
</svg>
