<svg width="24" height="24" viewBox="0 0 24 24" fill="none" xmlns="http://www.w3.org/2000/svg">
<path d="M15.65 10.675C16.025 10.675 16.3438 10.5437 16.6063 10.2812C16.8688 10.0188 17 9.7 17 9.325C17 8.95 16.8688 8.63125 16.6063 8.36875C16.3438 8.10625 16.025 7.975 15.65 7.975C15.275 7.975 14.9563 8.10625 14.6938 8.36875C14.4313 8.63125 14.3 8.95 14.3 9.325C14.3 9.7 14.4313 10.0188 14.6938 10.2812C14.9563 10.5437 15.275 10.675 15.65 10.675ZM8.35 10.675C8.725 10.675 9.04375 10.5437 9.30625 10.2812C9.56875 10.0188 9.7 9.7 9.7 9.325C9.7 8.95 9.56875 8.63125 9.30625 8.36875C9.04375 8.10625 8.725 7.975 8.35 7.975C7.975 7.975 7.65625 8.10625 7.39375 8.36875C7.13125 8.63125 7 8.95 7 9.325C7 9.7 7.13125 10.0188 7.39375 10.2812C7.65625 10.5437 7.975 10.675 8.35 10.675ZM12 17.475C13.1 17.475 14.1125 17.1791 15.0375 16.5875C15.9625 15.9958 16.6333 15.1917 17.05 14.175H15.75C15.3666 14.8417 14.8417 15.3541 14.175 15.7125C13.5084 16.0708 12.7875 16.25 12.0125 16.25C11.2375 16.25 10.5125 16.075 9.8375 15.725C9.1625 15.375 8.64165 14.8584 8.275 14.175H6.95C7.38335 15.1917 8.05835 15.9958 8.975 16.5875C9.89165 17.1791 10.9 17.475 12 17.475ZM12 22C10.6166 22 9.31665 21.7375 8.1 21.2125C6.88335 20.6875 5.825 19.975 4.925 19.075C4.025 18.175 3.3125 17.1166 2.7875 15.9C2.2625 14.6833 2 13.3834 2 12C2 10.6166 2.2625 9.31665 2.7875 8.1C3.3125 6.88335 4.025 5.825 4.925 4.925C5.825 4.025 6.88335 3.3125 8.1 2.7875C9.31665 2.2625 10.6166 2 12 2C13.3834 2 14.6833 2.2625 15.9 2.7875C17.1166 3.3125 18.175 4.025 19.075 4.925C19.975 5.825 20.6875 6.88335 21.2125 8.1C21.7375 9.31665 22 10.6166 22 12C22 13.3834 21.7375 14.6833 21.2125 15.9C20.6875 17.1166 19.975 18.175 19.075 19.075C18.175 19.975 17.1166 20.6875 15.9 21.2125C14.6833 21.7375 13.3834 22 12 22Z" fill="#AB0A65"/>
</svg>
