<svg width="21" height="25" viewBox="0 0 21 25" fill="none" xmlns="http://www.w3.org/2000/svg">
<path d="M4.60938 6.67188C4.60938 8.17615 5.20695 9.61878 6.27062 10.6825C7.33431 11.7462 8.77697 12.3438 10.2812 12.3438C11.7855 12.3438 13.2282 11.7462 14.2919 10.6825C15.3556 9.61878 15.9531 8.17615 15.9531 6.67188C15.9531 5.1676 15.3556 3.72493 14.2919 2.66125C13.2282 1.59758 11.7855 1 10.2812 1C8.77697 1 7.33431 1.59758 6.27062 2.66125C5.20695 3.72493 4.60938 5.1676 4.60938 6.67188Z" stroke="#AB0A65" stroke-width="2" stroke-linecap="round" stroke-linejoin="round"/>
<path d="M1 23.625C1 21.1635 1.97784 18.8027 3.71842 17.0621C5.45899 15.3216 7.81971 14.3438 10.2812 14.3438C12.7428 14.3438 15.1035 15.3216 16.8441 17.0621C18.5846 18.8027 19.5625 21.1635 19.5625 23.625" stroke="#AB0A65" stroke-width="2" stroke-linecap="round" stroke-linejoin="round"/>
</svg>
