<svg width="24" height="24" viewBox="0 0 24 24" fill="none" xmlns="http://www.w3.org/2000/svg">
<path d="M15.65 10.675C16.025 10.675 16.3438 10.5437 16.6063 10.2812C16.8688 10.0188 17 9.7 17 9.325C17 8.95 16.8688 8.63125 16.6063 8.36875C16.3438 8.10625 16.025 7.975 15.65 7.975C15.275 7.975 14.9563 8.10625 14.6938 8.36875C14.4313 8.63125 14.3 8.95 14.3 9.325C14.3 9.7 14.4313 10.0188 14.6938 10.2812C14.9563 10.5437 15.275 10.675 15.65 10.675ZM8.35 10.675C8.725 10.675 9.04375 10.5437 9.30625 10.2812C9.56875 10.0188 9.7 9.7 9.7 9.325C9.7 8.95 9.56875 8.63125 9.30625 8.36875C9.04375 8.10625 8.725 7.975 8.35 7.975C7.975 7.975 7.65625 8.10625 7.39375 8.36875C7.13125 8.63125 7 8.95 7 9.325C7 9.7 7.13125 10.0188 7.39375 10.2812C7.65625 10.5437 7.975 10.675 8.35 10.675ZM12.0042 13.575C10.8847 13.575 9.87085 13.8875 8.9625 14.5125C8.05415 15.1375 7.38335 15.9667 6.95 17H8.275C8.64165 16.3 9.15975 15.7584 9.82925 15.375C10.4989 14.9916 11.2281 14.8 12.0168 14.8C12.8056 14.8 13.5292 14.9958 14.1875 15.3875C14.8458 15.7791 15.3666 16.3166 15.75 17H17.05C16.6333 15.95 15.9681 15.1166 15.0542 14.5C14.1406 13.8834 13.1239 13.575 12.0042 13.575ZM12 22C10.6166 22 9.31665 21.7375 8.1 21.2125C6.88335 20.6875 5.825 19.975 4.925 19.075C4.025 18.175 3.3125 17.1166 2.7875 15.9C2.2625 14.6833 2 13.3834 2 12C2 10.6166 2.2625 9.31665 2.7875 8.1C3.3125 6.88335 4.025 5.825 4.925 4.925C5.825 4.025 6.88335 3.3125 8.1 2.7875C9.31665 2.2625 10.6166 2 12 2C13.3834 2 14.6833 2.2625 15.9 2.7875C17.1166 3.3125 18.175 4.025 19.075 4.925C19.975 5.825 20.6875 6.88335 21.2125 8.1C21.7375 9.31665 22 10.6166 22 12C22 13.3834 21.7375 14.6833 21.2125 15.9C20.6875 17.1166 19.975 18.175 19.075 19.075C18.175 19.975 17.1166 20.6875 15.9 21.2125C14.6833 21.7375 13.3834 22 12 22Z" fill="#AB0A65"/>
</svg>
