<svg width="34" height="34" viewBox="0 0 34 34" fill="none" xmlns="http://www.w3.org/2000/svg">
<g clip-path="url(#clip0_20_13)">
<path fill-rule="evenodd" clip-rule="evenodd" d="M0 17C0 7.61117 7.61117 0 17 0C26.3889 0 34 7.61117 34 17C34 26.3889 26.3889 34 17 34C7.61117 34 0 26.3889 0 17ZM10.1756 25.9869C9.95777 26.7964 9.12494 27.276 8.31545 27.0582C7.50596 26.8403 7.02634 26.0076 7.24419 25.1979C8.40252 20.8936 12.3312 17.7234 17.0042 17.7234C21.6773 17.7234 25.6059 20.8936 26.7643 25.1979C26.9822 26.0076 26.5025 26.8403 25.6931 27.0582C24.8836 27.276 24.0507 26.7964 23.8329 25.9869C23.0222 22.9744 20.27 20.7591 17.0042 20.7591C13.7385 20.7591 10.9863 22.9744 10.1756 25.9869ZM11.1276 14.5131C9.75618 14.51 8.64542 13.3972 8.64542 12.0251C8.64542 10.651 9.75936 9.537 11.1335 9.537L11.1394 9.53702C12.5108 9.54021 13.6215 10.6529 13.6215 12.0251C13.6215 13.3992 12.5076 14.5132 11.1335 14.5132L11.1276 14.5131ZM22.8606 14.5131C21.4892 14.51 20.3784 13.3973 20.3784 12.0251C20.3784 10.651 21.4924 9.537 22.8665 9.537C22.8685 9.537 22.8704 9.53702 22.8724 9.53702C24.2438 9.54018 25.3545 10.6529 25.3545 12.0251C25.3545 13.3992 24.2406 14.5132 22.8665 14.5132C22.8646 14.5132 22.8626 14.5132 22.8606 14.5131Z" fill="#AB0A65"/>
</g>
<defs>
<clipPath id="clip0_20_13">
<rect width="34" height="34" fill="white"/>
</clipPath>
</defs>
</svg>
