<svg width="28" height="28" viewBox="0 0 28 28" fill="none" xmlns="http://www.w3.org/2000/svg">
<path d="M10.5588 4.7936L11.3988 2.632C11.5414 2.26738 11.791 1.9545 12.1149 1.73458C12.4388 1.51466 12.8217 1.39801 13.2132 1.4H14.7868C15.1769 1.39971 15.5579 1.51715 15.8801 1.73696C16.2024 1.95677 16.4507 2.26872 16.5928 2.632L17.4328 4.7936L20.2328 6.4176L22.5288 6.0704C22.9127 6.01373 23.3048 6.07365 23.6542 6.24239C24.0037 6.41113 24.2944 6.68091 24.4888 7.0168L25.2784 8.3832C25.4728 8.72091 25.561 9.10932 25.5315 9.49786C25.502 9.88639 25.3563 10.2571 25.1132 10.5616L23.6656 12.376V15.624L25.1132 17.4384C25.3563 17.7429 25.502 18.1136 25.5315 18.5021C25.561 18.8907 25.4728 19.2791 25.2784 19.6168L24.4888 20.9832C24.2944 21.3191 24.0037 21.5889 23.6542 21.7576C23.3048 21.9263 22.9127 21.9863 22.5288 21.9296L20.2328 21.5824L17.4328 23.2064L16.5928 25.368C16.4507 25.7313 16.2024 26.0432 15.8801 26.263C15.5579 26.4828 15.1769 26.6003 14.7868 26.6H13.2132C12.8231 26.6003 12.4421 26.4828 12.1198 26.263C11.7976 26.0432 11.5492 25.7313 11.4072 25.368L10.5672 23.2064L7.76719 21.5824L5.47119 21.9296C5.08729 21.9863 4.69521 21.9263 4.34575 21.7576C3.99629 21.5889 3.70555 21.3191 3.51119 20.9832L2.69359 19.6168C2.49922 19.2791 2.41103 18.8907 2.44049 18.5021C2.46996 18.1136 2.61572 17.7429 2.85879 17.4384L4.30639 15.624V12.376L2.85879 10.5616C2.61572 10.2571 2.46996 9.88639 2.44049 9.49786C2.41103 9.10932 2.49922 8.72091 2.69359 8.3832L3.48319 7.0168C3.67755 6.68091 3.96829 6.41113 4.31775 6.24239C4.66721 6.07365 5.05929 6.01373 5.44319 6.0704L7.73919 6.4176L10.5588 4.7936ZM10.5 14C10.5 14.9283 10.8687 15.8185 11.5251 16.4749C12.1815 17.1312 13.0717 17.5 14 17.5C14.9283 17.5 15.8185 17.1312 16.4749 16.4749C17.1312 15.8185 17.5 14.9283 17.5 14C17.5 13.0717 17.1312 12.1815 16.4749 11.5251C15.8185 10.8687 14.9283 10.5 14 10.5C13.0717 10.5 12.1815 10.8687 11.5251 11.5251C10.8687 12.1815 10.5 13.0717 10.5 14Z" stroke="#AB0A65" stroke-width="2" stroke-linecap="round" stroke-linejoin="round"/>
</svg>
