<svg width="30" height="30" viewBox="0 0 30 30" fill="none" xmlns="http://www.w3.org/2000/svg">
<path d="M15 2.5C18.0185 2.5 20.7879 3.56906 22.948 5.35034C22.7567 5.7014 22.5712 6.0723 22.4121 6.4502C22.1405 7.09539 21.875 7.91351 21.875 8.75C21.875 11.1662 23.8338 13.125 26.25 13.125C26.6251 13.125 26.989 13.0771 27.3364 12.9882C27.4424 13.6434 27.5 14.315 27.5 15C27.5 21.9035 21.9035 27.5 15 27.5C8.09644 27.5 2.5 21.9035 2.5 15C2.5 8.09644 8.09644 2.5 15 2.5ZM5.625 13.125C4.58946 13.125 3.75 13.9645 3.75 15C3.75 16.0355 4.58946 16.875 5.625 16.875C5.95511 16.875 6.26501 16.7891 6.53442 16.6394L10.1965 18.8366C9.50521 19.5132 8.95445 20.333 8.59619 21.25H10.6702C11.5348 19.7557 13.1495 18.75 15 18.75C16.8505 18.75 18.4653 19.7557 19.3299 21.25H21.4037C20.4035 18.6896 17.9146 16.875 15 16.875C13.8636 16.875 12.792 17.1509 11.8482 17.6391L7.49756 15.0293C7.49771 15.0195 7.5 15.0098 7.5 15C7.5 13.9645 6.66054 13.125 5.625 13.125ZM9.33716 10.6628L10.5493 11.875L9.33716 13.0871L10.6628 14.4129L12.5379 12.5379C12.8811 12.1946 12.9029 11.6512 12.6025 11.283L12.5379 11.2122L10.6628 9.33716L9.33716 10.6628ZM17.4621 11.2122C17.096 11.5783 17.096 12.1717 17.4621 12.5379L19.3371 14.4129L20.6629 13.0871L19.4506 11.875L20.6629 10.6628L19.3371 9.33716L17.4621 11.2122ZM26.25 3.75C26.25 3.75 28.75 6.875 28.75 8.75C28.75 10.1307 27.6307 11.25 26.25 11.25C24.8693 11.25 23.75 10.1307 23.75 8.75C23.75 6.875 26.25 3.75 26.25 3.75Z" fill="#AB0A65"/>
</svg>
