<svg width="30" height="30" viewBox="0 0 30 30" fill="none" xmlns="http://www.w3.org/2000/svg">
<path d="M15 27.5C13.2708 27.5 11.6458 27.1719 10.125 26.5156C8.60419 25.8594 7.28125 24.9688 6.15625 23.8438C5.03125 22.7188 4.14062 21.3958 3.48438 19.875C2.82812 18.3542 2.5 16.7292 2.5 15C2.5 13.2708 2.82812 11.6458 3.48438 10.125C4.14062 8.60419 5.03125 7.28125 6.15625 6.15625C7.28125 5.03125 8.60419 4.14062 10.125 3.48438C11.6458 2.82812 13.2708 2.5 15 2.5C16.7292 2.5 18.3542 2.82812 19.875 3.48438C21.3958 4.14062 22.7188 5.03125 23.8438 6.15625C24.9688 7.28125 25.8594 8.60419 26.5156 10.125C27.1719 11.6458 27.5 13.2708 27.5 15C27.5 16.7292 27.1719 18.3542 26.5156 19.875C25.8594 21.3958 24.9688 22.7188 23.8438 23.8438C22.7188 24.9688 21.3958 25.8594 19.875 26.5156C18.3542 27.1719 16.7292 27.5 15 27.5ZM9.3125 15.75L13.7812 12.5L9.3125 9.25L8.1875 10.75L10.5938 12.5L8.1875 14.25L9.3125 15.75ZM13.125 21.3125L15 19.4375L16.875 21.3125L18.75 19.4375L19.9688 20.6562L21.2812 19.3438L18.75 16.8125L16.875 18.6875L15 16.8125L13.125 18.6875L11.25 16.8125L8.71875 19.3438L10.0312 20.6562L11.25 19.4375L13.125 21.3125ZM20.6875 15.75L21.8125 14.25L19.4062 12.5L21.8125 10.75L20.6875 9.25L16.2188 12.5L20.6875 15.75Z" fill="#AB0A65"/>
</svg>
